<?xml version="1.0" encoding="UTF-8"?>
<svg xmlns="http://www.w3.org/2000/svg" xmlns:xlink="http://www.w3.org/1999/xlink" width="19pt" height="16pt" viewBox="0 0 19 16" version="1.1">
<g id="surface1">
<path style=" stroke:none;fill-rule:nonzero;fill:rgb(0%,0%,0%);fill-opacity:1;" d="M 11.363281 7.066406 C 11.417969 7.367188 11.457031 7.667969 11.457031 8.054688 C 11.457031 11.449219 9.289062 13.855469 6.027344 13.855469 C 2.90625 13.855469 0.378906 11.199219 0.378906 7.917969 C 0.378906 4.636719 2.90625 1.980469 6.027344 1.980469 C 7.554688 1.980469 8.828125 2.5625 9.8125 3.535156 L 8.277344 5.082031 C 7.863281 4.660156 7.128906 4.167969 6.027344 4.167969 C 4.101562 4.167969 2.527344 5.84375 2.527344 7.917969 C 2.527344 9.988281 4.101562 11.667969 6.027344 11.667969 C 8.261719 11.667969 9.105469 9.972656 9.234375 9.109375 L 6.027344 9.109375 L 6.027344 7.066406 Z M 16.816406 7.265625 L 16.816406 5.539062 L 15.171875 5.539062 L 15.171875 7.265625 L 13.53125 7.265625 L 13.53125 8.996094 L 15.171875 8.996094 L 15.171875 10.71875 L 16.816406 10.71875 L 16.816406 8.996094 L 18.457031 8.996094 L 18.457031 7.265625 Z M 16.816406 7.265625 "/>
</g>
</svg>
